<svg width="20" height="20" viewBox="0 0 20 20" fill="none" xmlns="http://www.w3.org/2000/svg">
<path d="M17.0083 5.34162L14.6583 2.99162C14.5809 2.91351 14.4887 2.85151 14.3872 2.80921C14.2856 2.7669 14.1767 2.74512 14.0667 2.74512C13.9567 2.74512 13.8477 2.7669 13.7462 2.80921C13.6447 2.85151 13.5525 2.91351 13.475 2.99162L11.075 5.39162L14.6083 8.92495L17.0083 6.52495C17.0865 6.44748 17.1484 6.35531 17.1908 6.25376C17.2331 6.15221 17.2548 6.04329 17.2548 5.93328C17.2548 5.82327 17.2331 5.71435 17.1908 5.6128C17.1484 5.51125 17.0865 5.41909 17.0083 5.34162Z" stroke="#BA9FC8" stroke-width="2" stroke-linecap="round" stroke-linejoin="round"/>
<path d="M8.725 7.7417L12.2583 11.275L6.03333 17.5H2.5V13.9667L8.725 7.7417Z" stroke="#00565D" stroke-width="2" stroke-linecap="round" stroke-linejoin="round"/>
</svg>
