<svg width="24" height="24" viewBox="0 0 24 24" fill="none" xmlns="http://www.w3.org/2000/svg">
<path d="M16 8.99996H18.33C18.5696 8.99688 18.8025 9.07999 18.986 9.23417C19.1696 9.38835 19.2916 9.60334 19.33 9.83996L21 19.84C21.0233 19.984 21.0149 20.1315 20.9752 20.2719C20.9355 20.4124 20.8656 20.5424 20.7703 20.653C20.675 20.7635 20.5566 20.8519 20.4236 20.9118C20.2905 20.9718 20.1459 21.0018 20 21H3.99996C3.85402 21.0018 3.70944 20.9718 3.57636 20.9118C3.44329 20.8519 3.32495 20.7635 3.22965 20.653C3.13435 20.5424 3.06441 20.4124 3.02473 20.2719C2.98505 20.1315 2.97659 19.984 2.99996 19.84L4.66996 9.83996C4.70829 9.60334 4.83035 9.38835 5.0139 9.23417C5.19744 9.07999 5.43027 8.99688 5.66996 8.99996H7.99996" stroke="#00565D" stroke-width="2" stroke-linecap="round" stroke-linejoin="round"/>
<path d="M16 7C16 5.93913 15.5786 4.92172 14.8284 4.17157C14.0783 3.42143 13.0609 3 12 3C10.9391 3 9.92172 3.42143 9.17157 4.17157C8.42143 4.92172 8 5.93913 8 7C8 11 12 15 12 15C12 15 16 11 16 7Z" stroke="#BA9FC8" stroke-width="2" stroke-linecap="round" stroke-linejoin="round"/>
</svg>
